<?xml version="1.0" encoding="UTF-8" standalone="no"?>
<!-- Generator: Adobe Illustrator 17.1.0, SVG Export Plug-In . SVG Version: 6.00 Build 0)  -->

<svg
   xmlns:dc="http://purl.org/dc/elements/1.1/"
   xmlns:cc="http://creativecommons.org/ns#"
   xmlns:rdf="http://www.w3.org/1999/02/22-rdf-syntax-ns#"
   xmlns:svg="http://www.w3.org/2000/svg"
   xmlns="http://www.w3.org/2000/svg"
   xmlns:sodipodi="http://sodipodi.sourceforge.net/DTD/sodipodi-0.dtd"
   xmlns:inkscape="http://www.inkscape.org/namespaces/inkscape"
   version="1.1"
   id="Capa_1"
   x="0px"
   y="0px"
   viewBox="0 0 216.361 216.361"
   style="enable-background:new 0 0 216.361 216.361;"
   xml:space="preserve"
   sodipodi:docname="drum-with-drumsticks-svgrepo-com.svg"
   inkscape:export-filename="/home/billerot/Téléchargements/drum-with-drumsticks-svgrepo-com.svg.png"
   inkscape:export-xdpi="96"
   inkscape:export-ydpi="96"
   inkscape:version="0.92.4 5da689c313, 2019-01-14"><metadata
   id="metadata39"><rdf:RDF><cc:Work
       rdf:about=""><dc:format>image/svg+xml</dc:format><dc:type
         rdf:resource="http://purl.org/dc/dcmitype/StillImage" /></cc:Work></rdf:RDF></metadata><defs
   id="defs37" /><sodipodi:namedview
   pagecolor="#ffffff"
   bordercolor="#666666"
   borderopacity="1"
   objecttolerance="10"
   gridtolerance="10"
   guidetolerance="10"
   inkscape:pageopacity="0"
   inkscape:pageshadow="2"
   inkscape:window-width="1584"
   inkscape:window-height="1019"
   id="namedview35"
   showgrid="false"
   inkscape:zoom="3.8176937"
   inkscape:cx="108.1805"
   inkscape:cy="108.1805"
   inkscape:window-x="67"
   inkscape:window-y="30"
   inkscape:window-maximized="0"
   inkscape:current-layer="Capa_1" />
<path
   d="M 170.17283,198.361 H 35.119472 c -1.144281,0 -2.071472,-0.92719 -2.071472,-2.07147 v -8.63721 c 0,-1.14429 0.927191,-2.07148 2.071472,-2.07148 h 3.575361 v -60.6353 h -3.575361 c -1.144281,0 -2.071472,-0.92719 -2.071472,-2.07147 v -8.63721 c 0,-1.14428 0.927191,-2.07148 2.071472,-2.07148 H 170.17283 c 1.14427,0 2.07147,0.9272 2.07147,2.07148 v 8.63721 c 0,1.14428 -0.9272,2.07147 -2.07147,2.07147 h -3.57536 v 60.6353 h 3.57536 c 1.14427,0 2.07147,0.92719 2.07147,2.07148 v 8.63721 c 0,1.14428 -0.92802,2.07147 -2.07147,2.07147 z M 37.190944,194.21806 H 168.10135 v -4.49427 H 133.9262 c -0.006,0 -0.0116,0 -0.0174,0 H 71.383491 c -0.0058,0 -0.0116,0 -0.0174,0 h -34.17515 z m 99.995756,-8.63722 h 25.26699 v -53.4738 z m -62.511225,0 h 55.942175 l -27.97067,-57.94156 z m -31.837698,0 h 25.266988 l -25.266988,-53.4738 z m 1.198968,-60.6353 27.359176,57.90014 27.950789,-57.90014 z m 61.909665,0 27.95079,57.90014 27.35835,-57.90014 z m 58.62433,-4.14294 h 3.52979 v -4.49426 H 37.190944 v 4.49426 h 3.52896 c 0.02983,0 0.06049,0 0.08949,0 h 61.790356 c 0.0157,0 0.0356,0.003 0.0456,0 0.004,8.3e-4 0.0298,0 0.0456,0 h 61.79036 c 0.0315,0 0.0613,0 0.0895,0 z M 81.148411,110.03757 c -1.428488,0 -2.851174,-0.37121 -4.119743,-1.09787 -3.161067,-1.81213 -4.780958,-5.6775 -3.849624,-9.19072 0.778873,-2.93817 3.017721,-5.14056 5.868066,-5.88214 l 30.20455,-71.241248 c 0.60819,-1.435116 1.74169,-2.543768 3.18924,-3.122124 1.44837,-0.578354 3.03263,-0.553496 4.46277,0.06794 1.43016,0.621442 2.52803,1.764066 3.0923,3.217411 0.5651,1.453345 0.52616,3.037606 -0.10854,4.461951 L 88.380335,97.92858 c 1.179082,2.19824 1.309998,4.84392 0.299949,7.16729 -0.931334,2.14107 -2.737658,3.79162 -4.954962,4.52658 -0.838531,0.27757 -1.70855,0.41429 -2.576911,0.41512 z M 114.59108,23.232119 c -0.20797,0 -0.41511,0.03977 -0.61481,0.119316 -0.41347,0.164889 -0.73744,0.482239 -0.91061,0.891562 0,0 0,0 0,0 L 82.426923,96.5092 c -0.294977,0.69519 -0.945419,1.17494 -1.69612,1.252 -1.709379,0.17483 -3.102238,1.37214 -3.546361,3.04921 -0.459038,1.73175 0.342208,3.63916 1.904926,4.53486 1.034079,0.59244 2.218132,0.71508 3.332584,0.34469 1.101194,-0.36457 1.996899,-1.18321 2.459251,-2.24547 0.585813,-1.34811 0.396067,-2.91664 -0.495495,-4.09323 -0.455725,-0.60238 -0.548526,-1.40446 -0.241119,-2.09467 L 116.10492,25.564596 c 0.18146,-0.406837 0.19223,-0.859246 0.0315,-1.274369 -0.16157,-0.414294 -0.47478,-0.741587 -0.88327,-0.918906 -0.21378,-0.0928 -0.4375,-0.139202 -0.66205,-0.139202 z m 4.36004,78.256071 c -0.1508,0 -0.30078,-0.004 -0.45241,-0.0125 -2.33082,-0.12843 -4.51,-1.25448 -5.9791,-3.0898 -2.27779,-2.84454 -2.36727,-7.033892 -0.21377,-9.962128 1.80052,-2.448479 4.68898,-3.682248 7.61473,-3.32264 l 54.21125,-55.215503 c 1.09209,-1.112795 2.55206,-1.729265 4.11146,-1.736722 0.01,0 0.0182,0 0.0273,0 1.54946,0 3.00363,0.602383 4.09985,1.698606 1.10286,1.102852 1.70607,2.567797 1.69861,4.127201 -0.008,1.559405 -0.62393,3.019378 -1.73672,4.111458 L 127.11438,92.29993 c 0.29166,2.47748 -0.55682,4.98645 -2.34822,6.77786 -1.54284,1.54614 -3.64165,2.41036 -5.81504,2.41036 z m -0.005,-12.300397 c -1.28183,0 -2.50483,0.605701 -3.30275,1.691152 -1.06143,1.443405 -1.01502,3.511555 0.11103,4.917675 0.74407,0.92967 1.80052,1.47737 2.9738,1.542 1.16086,0.0654 2.2927,-0.36955 3.11135,-1.18902 1.03905,-1.03988 1.4376,-2.56863 1.03905,-3.99049 -0.20383,-0.726676 0.004,-1.508027 0.54356,-2.036675 l 56.01012,-54.99178 c 0.31735,-0.312379 0.49383,-0.729159 0.49632,-1.17494 0.002,-0.444952 -0.17068,-0.863389 -0.48472,-1.179081 -0.31487,-0.314864 -0.71839,-0.503783 -1.17909,-0.484725 -0.44578,0.0016 -0.86256,0.178146 -1.1741,0.496325 l -54.99179,56.01012 c -0.52947,0.538582 -1.31,0.747389 -2.03668,0.543554 -0.37285,-0.10357 -0.74655,-0.154115 -1.1161,-0.154115 z"
   id="path2"
   inkscape:connector-curvature="0"
   style="stroke-width:0.82858884;fill:#ffffff" />
<g
   id="g4"
   transform="matrix(0.82858885,0,0,0.82858885,18.922217,19.086688)"
   style="fill:#ffffff">
</g>
<g
   id="g6"
   transform="matrix(0.82858885,0,0,0.82858885,18.922217,19.086688)"
   style="fill:#ffffff">
</g>
<g
   id="g8"
   transform="matrix(0.82858885,0,0,0.82858885,18.922217,19.086688)"
   style="fill:#ffffff">
</g>
<g
   id="g10"
   transform="matrix(0.82858885,0,0,0.82858885,18.922217,19.086688)"
   style="fill:#ffffff">
</g>
<g
   id="g12"
   transform="matrix(0.82858885,0,0,0.82858885,18.922217,19.086688)"
   style="fill:#ffffff">
</g>
<g
   id="g14"
   transform="matrix(0.82858885,0,0,0.82858885,18.922217,19.086688)"
   style="fill:#ffffff">
</g>
<g
   id="g16"
   transform="matrix(0.82858885,0,0,0.82858885,18.922217,19.086688)"
   style="fill:#ffffff">
</g>
<g
   id="g18"
   transform="matrix(0.82858885,0,0,0.82858885,18.922217,19.086688)"
   style="fill:#ffffff">
</g>
<g
   id="g20"
   transform="matrix(0.82858885,0,0,0.82858885,18.922217,19.086688)"
   style="fill:#ffffff">
</g>
<g
   id="g22"
   transform="matrix(0.82858885,0,0,0.82858885,18.922217,19.086688)"
   style="fill:#ffffff">
</g>
<g
   id="g24"
   transform="matrix(0.82858885,0,0,0.82858885,18.922217,19.086688)"
   style="fill:#ffffff">
</g>
<g
   id="g26"
   transform="matrix(0.82858885,0,0,0.82858885,18.922217,19.086688)"
   style="fill:#ffffff">
</g>
<g
   id="g28"
   transform="matrix(0.82858885,0,0,0.82858885,18.922217,19.086688)"
   style="fill:#ffffff">
</g>
<g
   id="g30"
   transform="matrix(0.82858885,0,0,0.82858885,18.922217,19.086688)"
   style="fill:#ffffff">
</g>
<g
   id="g32"
   transform="matrix(0.82858885,0,0,0.82858885,18.922217,19.086688)"
   style="fill:#ffffff">
</g>
</svg>